<?xml version="1.0" encoding="iso-8859-1"?>
<!-- Uploaded to: SVG Repo, www.svgrepo.com, Generator: SVG Repo Mixer Tools -->
<svg version="1.1" id="Layer_1" xmlns="http://www.w3.org/2000/svg" xmlns:xlink="http://www.w3.org/1999/xlink" 
	 viewBox="0 0 392.404 392.404" xml:space="preserve">
<path style="fill:#FFFFFF;" d="M301.511,86.691h-27.992l8.339,15.515c3.943,7.24-1.293,16.097-9.568,16.097H119.984
	c-8.275,0-13.511-8.792-9.568-16.097l8.339-15.515H90.828c-5.495,0-9.956,4.461-9.956,9.956v264.016
	c0,5.495,4.461,9.956,9.956,9.956h210.747c5.495,0,9.956-4.461,9.956-9.956V96.646C311.467,91.087,307.006,86.691,301.511,86.691z"
	/>
<path style="fill:#FFC10D;" d="M289.681,108.477v226.069c0,7.952-6.4,14.352-14.352,14.352H117.075
	c-7.952,0-14.352-6.4-14.352-14.352V108.477h6.465c0.517,5.236,4.913,9.826,10.861,9.826h152.307c5.947,0,10.343-4.525,10.861-9.826
	H289.681z"/>
<rect x="138.02" y="191.418" style="fill:#56ACE0;" width="47.451" height="50.36"/>
<rect x="138.02" y="263.564" style="fill:#FFFFFF;" width="47.451" height="50.36"/>
<rect x="207.257" y="263.564" style="fill:#56ACE0;" width="47.451" height="50.36"/>
<g>
	<path style="fill:#194F82;" d="M265.503,241.778h-58.311v-61.285c0-6.012-4.848-10.925-10.925-10.925H127.03
		c-6.012,0-10.925,4.848-10.925,10.925v144.356c0,6.012,4.848,10.925,10.925,10.925h138.473c6.012,0,10.925-4.848,10.925-10.925
		v-72.145C276.428,246.691,271.515,241.778,265.503,241.778z M254.642,313.988h-47.451v-50.36h47.451V313.988z M185.471,313.988
		H138.02v-50.36h47.451V313.988z M138.02,191.418h47.451v50.36H138.02V191.418L138.02,191.418z"/>
	<path style="fill:#194F82;" d="M227.426,229.495c2.133,2.133,4.913,3.168,7.758,3.168s5.56-1.099,7.758-3.168l30.384-30.384
		c4.267-4.267,4.267-11.119,0-15.451c-4.267-4.267-11.119-4.267-15.451,0l-22.626,22.691l-5.818-5.818
		c-4.267-4.267-11.119-4.267-15.451,0c-4.267,4.267-4.267,11.119,0,15.451L227.426,229.495z"/>
</g>
<polygon style="fill:#FFFFFF;" points="138.343,96.453 254.061,96.453 236.283,63.418 156.121,63.418 "/>
<path style="fill:#FFC10D;" d="M206.158,31.677c0-5.495-4.461-9.956-9.956-9.956s-9.956,4.461-9.956,9.956v9.956h19.911V31.677z"/>
<path style="fill:#194F82;" d="M301.511,64.905h-39.628l-9.438-17.455c-1.939-3.556-5.56-5.689-9.568-5.689h-14.933v-10.02
	C227.943,14.222,213.721,0,196.202,0s-31.741,14.222-31.741,31.741v9.956h-14.933c-4.008,0-7.758,2.263-9.568,5.689l-9.438,17.519
	H90.828c-17.519,0-31.741,14.222-31.741,31.741v264.016c0,17.519,14.222,31.741,31.741,31.741h210.747
	c17.519,0,31.741-14.222,31.741-31.741V96.646C333.253,79.127,319.095,64.905,301.511,64.905z M311.467,360.727
	c0,5.495-4.461,9.956-9.956,9.956H90.893c-5.495,0-9.956-4.461-9.956-9.956V96.646c0-5.495,4.461-9.956,9.956-9.956h27.992
	l-8.404,15.515c-3.943,7.24,1.293,16.097,9.568,16.097h152.307c8.275,0,13.511-8.792,9.568-16.097l-8.339-15.515h27.992
	c5.495,0,9.956,4.461,9.956,9.956v264.081H311.467z M186.246,31.677c0-5.495,4.461-9.956,9.956-9.956s9.956,4.461,9.956,9.956v9.956
	h-19.911V31.677L186.246,31.677z M236.283,63.418l17.778,32.97H138.343l17.778-32.97H236.283z"/>
</svg>